# xmcd CD database file
#
# Track frame offsets:
#	150
#	30836
#	66439
#	99609
#	131243
#	156930
#	184630
#
# Disc length: 2746 seconds
#
# Revision: 1
# Processed by: cddbd v1.5.1PL2 Copyright (c) Steve Scherf et al.
# Submitted via: CDex 1.51
#
DISCID=5a0ab807
DTITLE=The Meier Group - The Past Is Gone
DYEAR=1999
DGENRE=Jazz
TTITLE0=Something Similar
TTITLE1=Friendship
TTITLE2=Seven to Twelve
TTITLE3=Grey
TTITLE4=Triart
TTITLE5=The Past Is Gone
TTITLE6=The Truth of a Dream
EXTD=YEAR: 1999
EXTT0=
EXTT1=
EXTT2=
EXTT3=
EXTT4=
EXTT5=
EXTT6=
PLAYORDER=
